/* XPM */
static char *_595414080921[] = {
/* columns rows colors chars-per-pixel */
"32 32 8 1 ",
"  c #110B08",
". c #110E0D",
"X c #1F1815",
"o c #1D1918",
"O c #302721",
"+ c #40342E",
"@ c #4F413B",
"# c #6F5F57",
/* pixels */
"ooooo.ooo.........ooo...oooooooo",
"#@@+OO X XOOOOOOX XX  ++   O+@@#",
"@+++OO  XO++#@++OO  O+#@+   O+@#",
"+++OOOX OO#@++++OOX++OOOO+  O+++",
"++OOOOO O++++OOOOXX+OOOOOOX XO++",
"++OOOOX +O+OOOOOOXXOOOOOOOX XOOO",
"OOOOOXO OO+OOOOOOXXXOXOOOOX XOOX",
"OOOOXOX OOOOOOOOXXOXXOXOXO  XOOX",
"XXOXOX  OOOOOOOXXXXOXXXXXX  XXOX",
"X       XOXOXXXOO+++  XXX    X X",
" +++     XXXX@#@@++OO          X",
"X+OX#@@     X+++++OOOXXX#@++O + ",
"OOOX@+@@@++ XOOOOOOOXX#@++OOO +X",
"OOOX+++++++OXOO++OOOXX@+++OOXXOO",
"OXOX+OOO++OOX+++++OOXO+++OOXXXOO",
"OOXXOOOOOOOOX+++OOOOXO++OOOX OOO",
"OXOXOXXX OOOX+OOOOOOXO+OOOO XOOO",
"OOXXOXXXX OXXXXXOOOXXOOOOOXX OOO",
"OXXXOOXXX  +   XXXXXOOOOX X OOOO",
"XXXXXOXXX +OOX           X XXOOO",
"XXXXXXXO+#@+++OX O#@@@+++ X XXXX",
"X      +@@+O++++X @++++++     XX",
"O+#@+++O++OOOOOOX +OOO++++ #@@+O",
"O@@+++OO+OOOOOOOXO+OOOO++OO@+++O",
"O+OOOOO++OOOOOOOOO++OOOOOOOOO+OO",
"OOO@@OO+OOOOOOOXXOOX+OOOOOXOOOOO",
"OO@@++O+OOOOOOOOXX X+OOOOXXOOOOO",
"OO++OOO+OOOOOOOOX  XOOOOOXXXOXOO",
"XOO+OXX+OOOXOOXX  XXOOOOOXXXXOXO",
"OXO+OX OOOOXOX    XXOOOOXXXXOXOX",
"XXXXXX   XXXX       XXXXXX XXXXX",
"XXXXXXX   XXXXXX   XXXXXX  XXXXX"
};
