/* XPM */
static char *brick2[] = {
/* columns rows colors chars-per-pixel */
"32 32 23 1 ",
"  c #0F0907",
". c #110B08",
"X c #110E0D",
"o c #150F0D",
"O c #160F0D",
"+ c #18110E",
"@ c #18120F",
"# c #19120F",
"$ c #1A1311",
"% c #1B1412",
"& c #1C1513",
"* c #1D1614",
"= c #1F1815",
"- c #1D1918",
"; c #221916",
": c #2C201D",
"> c #2E251F",
", c #2B2623",
"< c #2F2620",
"1 c #302721",
"2 c #40342E",
"3 c #4F413B",
"4 c #6F5F57",
/* pixels */
"-----X---XXXXXXXXX----,,,-XXXXXX",
"333211.=.=1111111....111=..12333",
"322211..=11122221111..===.=11233",
"222111=.11223321111=.....=112222",
"2211111.1223332111=..1...=122222",
"221111=.123333211==.33222=112211",
"11111=1.122332111=.=22111=12211=",
"1111=1=.121222111=.=11111=11111=",
"==1=1=..11112211<*=.==111==1111=",
"=.......=1=1111>OOOO .111.====.=",
".22211==.==111<+O;;;$..........=",
"=2111=......11+O;;:;+===4322112.",
"1111=..3322.*+O;;::;+=432211112=",
"111==.222221#O;::::;#=322211111=",
"1=1..1112211#;;::::;#1222111111=",
"11==11111111#;:::::;#===1111111=",
"1=1=11111111#;::;;;;$121111111==",
"11==11111111$O;;;;OO%==1=1111==.",
"1==111111111oOO++++&11=1=======.",
"=..=11111@@@@==@.........=====..",
"...======@@2222====122211.===...",
"=......@@@222211..1222211.......",
"1243222222211111=.22221111=12211",
"1332222221111111=112211111=12221",
"1212222221111111==111111=..=1221",
"1112222211111111===.......===111",
"1122221111111111==.111111111==11",
"112211111111111===.1122222111.=1",
"=.2211111111111====1221111111..1",
"1.111111111111==.=11211111111...",
"=.====1=1=1=1==..=1111111111.=.=",
"==.===========..............===="
};
