/* XPM */
static char *brick3[] = {
/* columns rows colors chars-per-pixel */
"32 32 10 1 ",
"  c #110B08",
". c #110E0D",
"X c #1F1815",
"o c #1D1918",
"O c gray13",
"+ c #302721",
"@ c gray19",
"# c #40342E",
"$ c #4F413B",
"% c #6F5F57",
/* pixels */
"ooooo.ooo........oooo...oooooooo",
"%$$#++ X X++++++X XX  ##   XXX##",
"$###++  X+######++  +#++++++X###",
"###+++X +##+++++++X##+++++++X+##",
"##+++++ +##+++++++X#++++++++X+++",
"##++++X ##++++++++X+++++++++X+++",
"+++++X+ ++#+++++++XX+X++++++X++X",
"++++X+X ++++++++++X X+X+++++X++X",
"XX+X+XX XXXXXXXXXXX XX+++++XXX+X",
"X   XXX X+X+XXXXX     XXXXXX X X",
" ###     XXXX++++++++X         X",
"X#+X%$$     X#####+++XXX%$##+ # ",
"+++X$#$$$## X+++++++XX%$##+++ #X",
"+++X#######+X++##+++XX$###++XX++",
"+X+X#+++##++X#####++X+###++XXX++",
"++XX++++++++X###++++XXXX+++X +++",
"+X+X++++++++X#++++++X+#++++ X+++",
"++XX+++++++XXXXX+++XXXX+++XX +++",
"+XXX++++++ #   XXXXX++X+X X ++++",
"XXXXX+XXX #++X           X XX+++",
"XXXXXXX+#%$###+X +%$$$### X XXXX",
"X      #$$#+####X $######     XX",
"+#%$###+##++++++X #+++#### %$$#+",
"+$$###++#+++++++X+#++++##++$###+",
"+####+@@@@@@@@@@@@@@@OOOOO+++#++",
"+###+X@..@O..@O..@O..OO..OX+++++",
"++#++XO..@O..@O..@O..OO..OX+++++",
"+++++XO..OO..@O..OO..OO..OXX+X++",
"X+++XXO..OO..OO..OO..OO..OXXX+X+",
"+X+XXXO..OO..OO..OO..OO..OXX+X+X",
"XXXXXXoooooooooooooooooooXoXXXXX",
"XXXXXXXooooooooooooooooooooXXXXX"
};
