/* XPM */
static char *_595414148470[] = {
/* columns rows colors chars-per-pixel */
"32 32 12 1 ",
"  c black",
". c #006000",
"X c #200040",
"o c #300060",
"O c #008000",
"+ c #00A000",
"@ c #400080",
"# c #5000A0",
"$ c #6000C0",
"% c #7000E0",
"& c #8000FF",
"* c None",
/* pixels */
"********************************",
"********************************",
"********************************",
"************+++*****************",
"************...+++O*************",
"************XXX....+++**********",
"**************XXXX+...+++*******",
"*************ooXXX+.XX...X******",
"**********ooo#&@X#&@XXXXXX******",
"*********o#o@&%@oX%@oX**********",
"********o@&oo#$#XX$#ooX*********",
"********oooXooooXX#o#&@X********",
"********o#&@Xo#&@Xo@&%@oX*******",
"*******o@&%@o@&%@ooo#$#X *******",
"*******oo#$#oo#$#XXoo#XX *******",
"*******Xoo#XXoo#XX#XXX   *******",
"*******oXXXXoXXXXoooXX  ********",
"******o@&XXo#&XXoo#&@X  ********",
"******oo#$o@&%@oo@&%@oX ********",
"******Xoo#oo#$#Xoo#$#X *********",
"*******XXoXoo#XXXoo#X  *********",
"********o#&XXXXXoXXX  **********",
"*******o@&%ooX&XXXX  ***********",
"*******oo#o#&@X$X  *************",
"******oXoo@&%@oXX  *************",
"*****o@&Xoo#$#XX  **************",
"*****oo#$Xoo#XX  ***************",
"*****Xoo#XXXX   ****************",
"******XXXX     *****************",
"*******   **********************",
"********************************",
"********************************"
};
