/* XPM */
static char *grey_dirt[] = {
/* columns rows colors chars-per-pixel */
"32 32 27 1 ",
"  c #101010",
". c #111111",
"X c gray7",
"o c #131313",
"O c gray8",
"+ c #151515",
"@ c #161616",
"# c gray9",
"$ c #181818",
"% c #191919",
"& c gray10",
"* c #1B1B1B",
"= c gray11",
"- c #1D1D1D",
"; c #1E1E1E",
": c gray12",
"> c #202020",
", c gray13",
"< c #222222",
"1 c #232323",
"2 c gray14",
"3 c #252525",
"4 c gray15",
"5 c #272727",
"6 c #282828",
"7 c gray16",
"8 c gray17",
/* pixels */
"%#@-*@+&#&-=%$#%+%#+#+@+XO$#.o+.",
"@+X+-@+%*+%*&$#@+$>==@$OO@#OOXX ",
"@.o>>,:+#$&@>@+X=$$$$$$$$$;$$$  ",
"++4->>#O>,:OX+Oo;$$$$$$$$$$$-X-.",
"+%=-:>&1>>-&*+X;$;$:::$$$$,,,;:.",
"#7;;:,%>>;==*X@$$#o>>:$$$,,,,;:$",
"$1>,>$#-&**@#@,&>@$>>@$*,,,;;$$$",
"##>1$&%+&$;$,<:<:>O$:#@:,,;;$$$$",
"$+$&&%$o@,88,,,@,<$$++@>,-###$$$",
"#&<<==@>888888,,=<*@+O@%#@@##+o$",
"&<<<=%$,888888,,@%@=*=<=&*%;>;oo",
"&<<==%,888888,,@@+&&*>262*%<:;@O",
"&<<<<%,,8888,,@@%#O*%<32::&>>-:#",
"+&<==%,,8,,,,,@,-:%**-25>4&$>@-$",
"O*<&=%@,,,@,@@;,<1,&*=>>-<*$#%:+",
">;*&&%#+%=;&&&,146>-#=,88:**&&<$",
"+:#&+##+$==&-&154;;%%,88,-*&=%$%",
"O++OXo;->=%%$$$*-%&%888,,@@&*###",
"+@o.X+#=;=>#*##O@*@,88,,,@#;-+@o",
"O#+XX@@-;-=,,$%@%+@,,,,@@@@--:+=",
"O@O+$$$@%$,,,,;@@$@,,,@@#O@;2>+-",
"@;;#%+&$$%@,,@@@Oo*@@@##@@;&:@+=",
"+-;@*;#@#=@@@@@$@@+@#o+#;>>%;$@=",
"@;-#,--@%-&#@@+@+$=&&*&;><$##$;*",
"#6;;$O$$%@@@O@O+&::;:;-:-*:;>:;O",
"XO#;oo@$%#+O%&+#&<<%,>>5*%$::;+o",
"+O+$@-:&&&&&&&%%&<%$&22*#,%%@OoO",
"+#%,%#++++&&&&&X=1$%&&&#32$;$@@X",
"$@,,$&&&&&&&&&&++#:#<@,1>:$;$@$o",
"++>>:=;8>-+&&&>#-;>:<,#<,<%;,$@X",
"Oo->:=:>;5&&&%&#=-,&,@+O>%>,;=*+",
"$:+-@%4-&2&&:;Ooo@#++@+:o$%@++++"
};
