/* XPM */
static char *grey_dirt3[] = {
/* columns rows colors chars-per-pixel */
"32 32 27 1 ",
"  c #101010",
". c #111111",
"X c gray7",
"o c #131313",
"O c gray8",
"+ c #151515",
"@ c #161616",
"# c gray9",
"$ c #181818",
"% c #191919",
"& c gray10",
"* c #1B1B1B",
"= c gray11",
"- c #1D1D1D",
"; c #1E1E1E",
": c gray12",
"> c #202020",
", c gray13",
"< c #222222",
"1 c #232323",
"2 c gray14",
"3 c #252525",
"4 c gray15",
"5 c #272727",
"6 c #282828",
"7 c gray16",
"8 c gray17",
/* pixels */
"%#@-*@+&#&-=%$#%+%#+#+@+XO$#.o+$",
"@+X+-@+%*+%*&$#@+5>==@@OO@#OOXX$",
"@.o>>,:+#$&@>@+X=*;>;;;;:O;O++ $",
"++4;;;===,@<;;#++=$2-6=-55$$,X-$",
"+%=;;=========1=X@&%;->,,,#%,X#$",
"#7;;====<<<<=<==%%&%o&=;::-@$@#=",
"$1>======<<<====#+&%O+#%$@oo;##*",
"##;;====<;;:===&+O@O@@@%$$O$;:#:",
"$+$##=;;=&*===$+@+$@#&-%@--,#o*=",
"#>,;%>>==+o#@+@@$,;:===#@#;*@+o:",
">>;:&;@=##=;#*oO44:%*%%$$&+%#;oo",
"<$+2;@O#&%=:$$$@$;-,,&$%@$$$+;@O",
">$---@#$<>3-#@+%-,---=-;-@@XX-:#",
"+%1-;-@O*@O#O--,,---#>=;=#+X.@-$",
"O*3*&&%&%-*$#4,,,---%%=>-;oXO%:+",
">;*=&%%;;41-#-,,--&-&==$+##+O&<$",
"+:#&*#->61-##-,,,--&&;=%+#$->%$%",
"O++#$*&,1-#-O--,---$=1>-#@:11###",
"+@o>$**%####O&---,-O$###+@;:<+@#",
"O#+>>&::23<%*O#%---%;&#$+@$;>:+#",
"O@O:<%*262>*&&+$**%*31,>$$$#@>+#",
"@;;>;%*&=<=*=@%--*>**1>1>$,&$@+#",
"+-;##@@#%@O+@*<=,*,,%&#%>@*,>$##",
"@;-###-,>-++$$<,:>,,*#-@o$%&&$#*",
"#6;>+;--:@-@$O>:<:<,$;$&+%&$1:;#",
"XO#O+-@$*-@@>$@>&,@#@**&-#$>,;=o",
"+O+#OoO$$$$>@o#$$@X*==;>>%,:;==O",
"+#%o+O@**$$$**;#;X+*&->>1&>:-,=X",
"$@,-;=;;;:--;;:;oO+XO:,>O#>>-,:$",
"++>>:=;8>-:,2%>#-;>:<,#<,<%,<;=$",
"Oo->:=:>;512,%&#=-,&,@+O>%>,;=$$",
"$:+-@%4-&21>:;Ooo@#++@+:o$%@$$$o"
};
