/* XPM */
static char *grey_dirt2[] = {
/* columns rows colors chars-per-pixel */
"32 32 30 1 ",
"  c #0B0B0B",
". c #0C0C0C",
"X c gray5",
"o c #0E0E0E",
"O c gray6",
"+ c #101010",
"@ c #111111",
"# c gray7",
"$ c #131313",
"% c gray8",
"& c #151515",
"* c #161616",
"= c gray9",
"- c #181818",
"; c #191919",
": c gray10",
"> c #1B1B1B",
", c gray11",
"< c #1D1D1D",
"1 c #1E1E1E",
"2 c gray12",
"3 c #202020",
"4 c gray13",
"5 c #222222",
"6 c #232323",
"7 c gray14",
"8 c gray15",
"9 c #272727",
"0 c #282828",
"q c gray17",
/* pixels */
";=*<>*&*********-;=&=&*&#%-=@$&@",
"*&#&<*&;<<<>:-=--*----*%%*=%%##+",
"*@$3342&<<<<<<<----<--<<---%&&++",
"&&8<33=%3<2<<<<--<<<<<<<<<---#<@",
"&;,<23:633<<<:--&<<<<<-------#<@",
"=======31<::>:--&<<<<----%$%==9,",
"-6343-=,---::-&&2&<<-&=:=&-&===>",
"=33633-$=&;---<411$---&,::>$12==",
"-3333=&+@*#->1<112&*$$--,;$%&#>,",
"=,,12=@;#+$$><<2:2-$$#%&$##$%%#2",
";,,,,>#=-*;%*,1>>*$==-1=%&$-,>#$",
",,,,,,@+**;,&*13*#&;;;25<%#>:>&%",
"2,>,;,+O++$*%#*$$$;22222;-$->:<*",
"%-31:-@o+++$$$;;222222<5>2%$>%,-",
"$;42<:+@&*&&&$;222222<<<;,&$%*<&",
"1,-<;%$O$%&&&;;22222<<<;>:=**=3-",
"%<&##$#+#&%@$2222<<<<<<<>;*&=&*-",
"$%%@++-=-%@@O;;;;;;<<<<<>,$$&$%*",
"%&#O@#$**%=+@O$&$;;;<<;>,@@&*@$#",
"%*%@@%$-=&%$$+#+&&;;;;;>$@O&*;#>",
"%*%%=*%#%#%%#%*@&&&&;;#$+oO*,>$,",
"*11=;&-*%%%&$;*$ &&&$$O+oO*%>$$>",
"&<1*>1*%&--=-*=O...O+.Xo&-:*>&&,",
"*1<=4<<*-:*$#@oOX+%%%#+#&:$$%*<>",
"=011-%--;&$$+#OO%&&&&&&&$#==:,<%",
"#%=1$$*-;=%$--$&&&<<<<<&&&O*;:%$",
"&%&-*<221,:$;:-&&;;<<<<<;&&&@@#%",
"&=;4;=4443<1;:*&;;;;<<<<<<<&&;@#",
"-*44--99<,0<7-,&;=;;;;;;;<<<&;;$",
"&&332,1q3<247;3;;&&;;;;;;;<<;;;#",
"%$<32,2319674;:=&&&&&&&#&&3;;;>O",
"-2&<*;8<:76321%$$*=&&*&#$-;*#+o&"
};
