/* XPM */
static char *large_box[] = {
/* columns rows colors chars-per-pixel */
"32 32 8 1 ",
"  c #000001",
". c black",
"X c #603000",
"o c #804000",
"O c #A05000",
"+ c #C06000",
"@ c #808080",
"# c #A0A0A0",
/* pixels */
"                                ",
"                                ",
"                                ",
"                                ",
"                                ",
"                                ",
"                                ",
"                                ",
"                                ",
"                                ",
"                                ",
"      OOO+OOO+OO+OOOO+OO+OO+OO  ",
"     OOO+OOO+OO+OOOO+OO+OO+OOX  ",
"    OOO+OOO+OOO+OOO+OO+OO+OOXX  ",
"   OOO+OOO+OOO+OOO+OOO+OO+OoXo  ",
"  OOOO+OO+OOO+OO++OOO+OO+OXooX  ",
" OOOO+OOOO+O+OO+OOOO+O+OOoXooX  ",
"OOOO+OOOOO+OOO+OOOO+OO+OXooXoX  ",
"oooOooOoooOoooOooOoooOoXXoXXoX  ",
"oooOooOoooOoooOooOoooOoXooXXoX. ",
"OOOOOOOO########OOOOOOOoXoXXoX. ",
"oooOoOoX@@@..@@@XoOooOoXXoXoXo. ",
"oooOoOoX@@@..@@@XoOooOoXXoXoXo. ",
"oooOoOoX@@@@@@@@XoOooOoXXoXoXo. ",
"oooOoOooXXXXXXXXooOoOooXoXXoXo. ",
"ooOoooOooOooOoooOoOoOooXoXXoX.. ",
"ooOoooOooOooOoooOoOoOooXoXXo..  ",
"ooOoOoOooOoooOooOoOoOooXoXX..   ",
"ooOoOoOoooOooOooOoooOooXoX..    ",
"ooOoOoOoooOooOooOoooOooXo..     ",
"ooOoOoOoooOooOooOoooOooX..      ",
" ........................       ",
};
